<svg width="1280" height="860" viewBox="0 0 1280 860" fill="none" xmlns="http://www.w3.org/2000/svg">
  <defs>
    <linearGradient id="wall3" x1="640" y1="0" x2="640" y2="530" gradientUnits="userSpaceOnUse">
      <stop stop-color="#123545"/>
      <stop offset="1" stop-color="#0B222C"/>
    </linearGradient>
    <linearGradient id="floor3" x1="640" y1="530" x2="640" y2="860" gradientUnits="userSpaceOnUse">
      <stop stop-color="#11222A"/>
      <stop offset="1" stop-color="#081318"/>
    </linearGradient>
  </defs>
  <rect width="1280" height="860" fill="url(#wall3)"/>
  <rect y="530" width="1280" height="330" fill="url(#floor3)"/>
  <circle cx="1060" cy="144" r="94" fill="#F3B71D" opacity="0.16"/>
  <circle cx="160" cy="120" r="118" fill="#1AB2C2" opacity="0.12"/>
  <rect x="152" y="166" width="258" height="244" rx="34" fill="#173B4A"/>
  <rect x="186" y="204" width="190" height="138" rx="22" fill="#0A1C23"/>
  <rect x="206" y="224" width="150" height="96" rx="16" fill="#1AB2C2" opacity="0.2"/>
  <rect x="206" y="360" width="150" height="18" rx="9" fill="#F6F2EC" opacity="0.24"/>
  <rect x="206" y="390" width="104" height="18" rx="9" fill="#F6F2EC" opacity="0.18"/>
  <rect x="510" y="420" width="358" height="150" rx="32" fill="#E9ECEF"/>
  <rect x="494" y="402" width="390" height="48" rx="24" fill="#F5F6F8"/>
  <rect x="536" y="450" width="294" height="108" rx="28" fill="#FAFBFC"/>
  <rect x="882" y="246" width="222" height="388" rx="30" fill="#102A34"/>
  <rect x="914" y="286" width="158" height="38" rx="12" fill="#F6F2EC" opacity="0.2"/>
  <rect x="914" y="348" width="158" height="100" rx="18" fill="#163845"/>
  <rect x="914" y="472" width="158" height="100" rx="18" fill="#163845"/>
  <rect x="108" y="562" width="146" height="108" rx="26" fill="#10303B"/>
  <rect x="292" y="560" width="118" height="112" rx="20" fill="#10303B"/>
  <rect x="1002" y="548" width="96" height="122" rx="46" fill="#123B49"/>
  <circle cx="1050" cy="510" r="40" fill="#2E7D55"/>
  <path d="M100 724C224 694 344 696 484 724C620 752 770 754 914 732C1030 714 1134 716 1280 744V860H0V738C32 734 66 730 100 724Z" fill="#081418"/>
</svg>
