<svg width="1280" height="860" viewBox="0 0 1280 860" fill="none" xmlns="http://www.w3.org/2000/svg">
  <defs>
    <linearGradient id="sky1" x1="640" y1="0" x2="640" y2="430" gradientUnits="userSpaceOnUse">
      <stop stop-color="#19445A"/>
      <stop offset="1" stop-color="#0C2430"/>
    </linearGradient>
    <linearGradient id="ground1" x1="640" y1="540" x2="640" y2="860" gradientUnits="userSpaceOnUse">
      <stop stop-color="#0B1A20"/>
      <stop offset="1" stop-color="#071217"/>
    </linearGradient>
    <linearGradient id="building1" x1="292" y1="238" x2="942" y2="686" gradientUnits="userSpaceOnUse">
      <stop stop-color="#102731"/>
      <stop offset="1" stop-color="#08161C"/>
    </linearGradient>
  </defs>
  <rect width="1280" height="860" fill="url(#sky1)"/>
  <rect y="534" width="1280" height="326" fill="url(#ground1)"/>
  <circle cx="1060" cy="132" r="88" fill="#F3B71D" opacity="0.22"/>
  <circle cx="182" cy="164" r="120" fill="#1AB2C2" opacity="0.16"/>
  <rect x="206" y="248" width="864" height="340" rx="42" fill="url(#building1)"/>
  <rect x="206" y="248" width="864" height="340" rx="42" stroke="rgba(255,255,255,0.08)"/>
  <rect x="332" y="196" width="348" height="118" rx="32" fill="#0D222B"/>
  <rect x="332" y="196" width="348" height="118" rx="32" stroke="rgba(255,255,255,0.08)"/>
  <rect x="380" y="228" width="78" height="78" rx="39" fill="#118A96"/>
  <circle cx="419" cy="267" r="26" stroke="#F6F2EC" stroke-width="3"/>
  <path d="M406 255C412 248 426 248 432 255" stroke="#F6F2EC" stroke-width="3" stroke-linecap="round"/>
  <path d="M396 272C404 280 434 280 442 272" stroke="#F6F2EC" stroke-width="3" stroke-linecap="round"/>
  <text x="484" y="270" fill="#F6F2EC" font-family="Segoe UI, Arial, sans-serif" font-size="40" font-weight="700">UltraDerma</text>
  <rect x="284" y="330" width="184" height="122" rx="20" fill="#143948"/>
  <rect x="500" y="330" width="184" height="122" rx="20" fill="#143948"/>
  <rect x="716" y="330" width="184" height="122" rx="20" fill="#143948"/>
  <rect x="932" y="330" width="84" height="122" rx="20" fill="#143948"/>
  <rect x="284" y="476" width="184" height="84" rx="20" fill="#102A36"/>
  <rect x="500" y="476" width="184" height="84" rx="20" fill="#102A36"/>
  <rect x="716" y="476" width="184" height="84" rx="20" fill="#102A36"/>
  <rect x="932" y="476" width="84" height="84" rx="20" fill="#102A36"/>
  <rect x="560" y="392" width="158" height="196" rx="28" fill="#0B1A20"/>
  <rect x="580" y="412" width="118" height="176" rx="18" fill="#101D24"/>
  <rect x="606" y="452" width="66" height="136" rx="16" fill="#0E2E39"/>
  <path d="M0 620H1280" stroke="#10303B" stroke-width="6"/>
  <path d="M180 620C248 590 314 576 382 576" stroke="#1AB2C2" stroke-width="4" stroke-linecap="round" opacity="0.42"/>
  <path d="M842 604C936 570 1038 574 1128 618" stroke="#F3B71D" stroke-width="4" stroke-linecap="round" opacity="0.42"/>
  <ellipse cx="640" cy="648" rx="354" ry="56" fill="#09161B" opacity="0.44"/>
</svg>
