<svg width="620" height="760" viewBox="0 0 620 760" fill="none" xmlns="http://www.w3.org/2000/svg">
  <defs>
    <linearGradient id="skinA" x1="180" y1="120" x2="180" y2="250" gradientUnits="userSpaceOnUse">
      <stop stop-color="#F4C7A0"/>
      <stop offset="1" stop-color="#D9966A"/>
    </linearGradient>
    <linearGradient id="skinB" x1="365" y1="160" x2="365" y2="320" gradientUnits="userSpaceOnUse">
      <stop stop-color="#F5D0B7"/>
      <stop offset="1" stop-color="#DAA586"/>
    </linearGradient>
    <linearGradient id="navy" x1="76" y1="272" x2="272" y2="564" gradientUnits="userSpaceOnUse">
      <stop stop-color="#1E2A4B"/>
      <stop offset="1" stop-color="#11192D"/>
    </linearGradient>
    <linearGradient id="whiteCloth" x1="262" y1="272" x2="428" y2="620" gradientUnits="userSpaceOnUse">
      <stop stop-color="#FFFFFF"/>
      <stop offset="1" stop-color="#E4E3EA"/>
    </linearGradient>
    <linearGradient id="hairMale" x1="165" y1="128" x2="165" y2="196" gradientUnits="userSpaceOnUse">
      <stop stop-color="#1A202C"/>
      <stop offset="1" stop-color="#0B1220"/>
    </linearGradient>
    <linearGradient id="hairFemale" x1="370" y1="128" x2="370" y2="304" gradientUnits="userSpaceOnUse">
      <stop stop-color="#9C6038"/>
      <stop offset="1" stop-color="#5B2B18"/>
    </linearGradient>
    <filter id="shadow" x="20" y="140" width="560" height="580" filterUnits="userSpaceOnUse" color-interpolation-filters="sRGB">
      <feDropShadow dx="0" dy="28" stdDeviation="24" flood-color="#000000" flood-opacity="0.26"/>
    </filter>
  </defs>

  <ellipse cx="310" cy="690" rx="220" ry="34" fill="#082029" opacity="0.45"/>
  <circle cx="158" cy="164" r="82" fill="#25A6B5" opacity="0.18"/>
  <circle cx="476" cy="128" r="64" fill="#F3B71D" opacity="0.18"/>

  <g filter="url(#shadow)">
    <g>
      <rect x="106" y="354" width="84" height="214" rx="38" fill="#E9D8C3"/>
      <rect x="170" y="354" width="84" height="214" rx="38" fill="#E4D0B8"/>
      <path d="M88 298C88 266 114 240 146 240H206C238 240 264 266 264 298V430H88V298Z" fill="url(#navy)"/>
      <path d="M145 248H209L226 328H128L145 248Z" fill="#FFFFFF"/>
      <rect x="142" y="306" width="69" height="164" rx="30" fill="url(#navy)"/>
      <rect x="142" y="330" width="69" height="126" rx="20" fill="#141D34" opacity="0.68"/>
      <rect x="206" y="286" width="50" height="170" rx="24" transform="rotate(-12 206 286)" fill="url(#navy)"/>
      <rect x="80" y="286" width="48" height="176" rx="24" transform="rotate(14 80 286)" fill="url(#navy)"/>
      <rect x="120" y="160" width="86" height="112" rx="42" fill="url(#skinA)"/>
      <path d="M116 182C116 136 152 106 183 106C216 106 226 142 226 178V192H116V182Z" fill="url(#hairMale)"/>
      <path d="M135 216C150 224 180 226 195 216" stroke="#B96C47" stroke-width="4" stroke-linecap="round"/>
      <path d="M152 194C158 190 166 190 172 194" stroke="#303949" stroke-width="4" stroke-linecap="round"/>
      <path d="M182 194C188 190 196 190 202 194" stroke="#303949" stroke-width="4" stroke-linecap="round"/>
      <path d="M173 192H180" stroke="#303949" stroke-width="3" stroke-linecap="round"/>
      <path d="M148 196C152 208 168 214 180 214C192 214 206 208 210 196" stroke="#1B2434" stroke-width="3" opacity="0.5"/>
      <rect x="146" y="186" width="28" height="18" rx="8" stroke="#71A8C4" stroke-width="3"/>
      <rect x="184" y="186" width="28" height="18" rx="8" stroke="#71A8C4" stroke-width="3"/>
    </g>

    <g>
      <rect x="284" y="430" width="96" height="166" rx="42" fill="#F3E9DD"/>
      <rect x="348" y="430" width="96" height="166" rx="42" fill="#EADBCD"/>
      <path d="M256 324C256 286 286 256 324 256H406C444 256 474 286 474 324V506H256V324Z" fill="url(#whiteCloth)"/>
      <path d="M290 294C312 274 348 266 378 276C396 282 414 294 430 316L454 424C452 468 420 510 364 510C308 510 278 470 278 422L290 294Z" fill="url(#whiteCloth)"/>
      <path d="M314 282L364 338L416 282" stroke="#D9D7DE" stroke-width="8" stroke-linecap="round"/>
      <rect x="374" y="374" width="48" height="144" rx="24" transform="rotate(-18 374 374)" fill="#F7F6FA"/>
      <rect x="248" y="368" width="54" height="154" rx="24" transform="rotate(16 248 368)" fill="#F7F6FA"/>
      <rect x="318" y="168" width="104" height="132" rx="50" fill="url(#skinB)"/>
      <path d="M318 210C318 156 348 120 390 120C430 120 446 154 446 208V222H318V210Z" fill="url(#hairFemale)"/>
      <path d="M348 210C338 246 334 280 340 312" stroke="#7A3F25" stroke-width="16" stroke-linecap="round"/>
      <path d="M414 210C432 244 438 274 432 330" stroke="#7A3F25" stroke-width="16" stroke-linecap="round"/>
      <path d="M350 236C364 244 388 244 402 236" stroke="#B96C47" stroke-width="4" stroke-linecap="round"/>
      <path d="M344 214C350 210 358 210 364 214" stroke="#603521" stroke-width="4" stroke-linecap="round"/>
      <path d="M390 214C396 210 404 210 410 214" stroke="#603521" stroke-width="4" stroke-linecap="round"/>
      <path d="M360 430C380 436 406 434 424 418" stroke="#E3D9D0" stroke-width="12" stroke-linecap="round"/>
      <path d="M280 428C302 440 324 446 346 446" stroke="#E3D9D0" stroke-width="12" stroke-linecap="round"/>
    </g>
  </g>
</svg>
