<svg width="720" height="820" viewBox="0 0 720 820" fill="none" xmlns="http://www.w3.org/2000/svg">
  <defs>
    <linearGradient id="bg1" x1="42" y1="26" x2="602" y2="820" gradientUnits="userSpaceOnUse">
      <stop stop-color="#14445B"/>
      <stop offset="1" stop-color="#07161C"/>
    </linearGradient>
    <linearGradient id="skin1" x1="370" y1="196" x2="370" y2="338" gradientUnits="userSpaceOnUse">
      <stop stop-color="#F4CAA6"/>
      <stop offset="1" stop-color="#D89B72"/>
    </linearGradient>
    <linearGradient id="hair1" x1="364" y1="150" x2="364" y2="236" gradientUnits="userSpaceOnUse">
      <stop stop-color="#1B2433"/>
      <stop offset="1" stop-color="#0F1727"/>
    </linearGradient>
    <linearGradient id="coat1" x1="234" y1="300" x2="520" y2="694" gradientUnits="userSpaceOnUse">
      <stop stop-color="#202C4D"/>
      <stop offset="1" stop-color="#0E1730"/>
    </linearGradient>
  </defs>
  <rect width="720" height="820" rx="48" fill="url(#bg1)"/>
  <circle cx="114" cy="142" r="112" fill="#1AB2C2" opacity="0.12"/>
  <circle cx="600" cy="110" r="78" fill="#F3B71D" opacity="0.14"/>
  <rect x="66" y="66" width="588" height="688" rx="36" fill="#0B1E26" opacity="0.34" stroke="rgba(255,255,255,0.06)"/>
  <ellipse cx="362" cy="720" rx="182" ry="34" fill="#06161B" opacity="0.5"/>
  <rect x="280" y="520" width="82" height="160" rx="34" fill="#E8D6C0"/>
  <rect x="362" y="520" width="82" height="160" rx="34" fill="#E0CBB0"/>
  <path d="M216 394C216 338 262 292 318 292H404C460 292 506 338 506 394V574H216V394Z" fill="url(#coat1)"/>
  <path d="M304 308H418L438 420H282L304 308Z" fill="#FAFAFC"/>
  <rect x="314" y="404" width="96" height="184" rx="34" fill="#1A2440"/>
  <rect x="440" y="356" width="64" height="202" rx="30" transform="rotate(-14 440 356)" fill="url(#coat1)"/>
  <rect x="202" y="356" width="64" height="202" rx="30" transform="rotate(14 202 356)" fill="url(#coat1)"/>
  <rect x="300" y="176" width="124" height="152" rx="58" fill="url(#skin1)"/>
  <path d="M300 220C300 164 336 134 374 134C412 134 430 166 430 216V232H300V220Z" fill="url(#hair1)"/>
  <path d="M324 258C342 270 382 270 400 258" stroke="#BC734D" stroke-width="5" stroke-linecap="round"/>
  <path d="M322 224C330 218 342 218 350 224" stroke="#2D374A" stroke-width="4" stroke-linecap="round"/>
  <path d="M380 224C388 218 400 218 408 224" stroke="#2D374A" stroke-width="4" stroke-linecap="round"/>
  <rect x="322" y="216" width="34" height="22" rx="9" stroke="#79B5D8" stroke-width="3"/>
  <rect x="370" y="216" width="34" height="22" rx="9" stroke="#79B5D8" stroke-width="3"/>
  <path d="M356 226H370" stroke="#79B5D8" stroke-width="3" stroke-linecap="round"/>
  <path d="M488 148C540 166 584 208 608 260" stroke="#F3B71D" stroke-width="3" stroke-linecap="round" opacity="0.64"/>
  <path d="M104 618C152 650 208 672 276 680" stroke="#1AB2C2" stroke-width="3" stroke-linecap="round" opacity="0.5"/>
</svg>
