<svg width="720" height="820" viewBox="0 0 720 820" fill="none" xmlns="http://www.w3.org/2000/svg">
  <defs>
    <linearGradient id="bg2" x1="34" y1="40" x2="612" y2="810" gradientUnits="userSpaceOnUse">
      <stop stop-color="#0E3140"/>
      <stop offset="1" stop-color="#07161C"/>
    </linearGradient>
    <linearGradient id="skin2" x1="362" y1="184" x2="362" y2="332" gradientUnits="userSpaceOnUse">
      <stop stop-color="#F5D2BE"/>
      <stop offset="1" stop-color="#D8A285"/>
    </linearGradient>
    <linearGradient id="hair2" x1="362" y1="126" x2="362" y2="350" gradientUnits="userSpaceOnUse">
      <stop stop-color="#96623A"/>
      <stop offset="1" stop-color="#5A2D1B"/>
    </linearGradient>
    <linearGradient id="coat2" x1="252" y1="294" x2="494" y2="730" gradientUnits="userSpaceOnUse">
      <stop stop-color="#FFFFFF"/>
      <stop offset="1" stop-color="#E6E6EE"/>
    </linearGradient>
  </defs>
  <rect width="720" height="820" rx="48" fill="url(#bg2)"/>
  <circle cx="138" cy="132" r="96" fill="#F3B71D" opacity="0.12"/>
  <circle cx="578" cy="150" r="118" fill="#19A8B8" opacity="0.12"/>
  <rect x="66" y="66" width="588" height="688" rx="36" fill="#0A1E25" opacity="0.34"/>
  <ellipse cx="364" cy="722" rx="176" ry="34" fill="#08161C" opacity="0.46"/>
  <rect x="284" y="520" width="80" height="160" rx="34" fill="#EEE2D2"/>
  <rect x="366" y="520" width="80" height="160" rx="34" fill="#E5D6C5"/>
  <path d="M246 390C246 332 294 284 352 284H388C446 284 494 332 494 390V566H246V390Z" fill="url(#coat2)"/>
  <path d="M290 324C316 298 350 288 388 294C422 300 452 320 472 354L486 474C468 540 426 576 364 576C304 576 262 540 248 472L290 324Z" fill="url(#coat2)"/>
  <path d="M318 310L364 356L414 308" stroke="#D8D9E0" stroke-width="8" stroke-linecap="round"/>
  <rect x="420" y="372" width="54" height="188" rx="24" transform="rotate(-16 420 372)" fill="#F7F7FB"/>
  <rect x="230" y="372" width="58" height="188" rx="24" transform="rotate(16 230 372)" fill="#F7F7FB"/>
  <rect x="308" y="164" width="110" height="140" rx="52" fill="url(#skin2)"/>
  <path d="M308 210C308 154 340 126 382 126C426 126 442 160 442 214V228H308V210Z" fill="url(#hair2)"/>
  <path d="M334 210C324 248 320 280 326 320" stroke="#713D25" stroke-width="18" stroke-linecap="round"/>
  <path d="M418 210C438 250 444 286 438 336" stroke="#713D25" stroke-width="18" stroke-linecap="round"/>
  <path d="M338 252C354 262 382 262 398 252" stroke="#B96E50" stroke-width="5" stroke-linecap="round"/>
  <path d="M332 222C338 216 348 216 354 222" stroke="#633823" stroke-width="4" stroke-linecap="round"/>
  <path d="M390 222C396 216 406 216 412 222" stroke="#633823" stroke-width="4" stroke-linecap="round"/>
  <path d="M90 610C160 648 216 670 278 678" stroke="#19A8B8" stroke-width="3" stroke-linecap="round" opacity="0.56"/>
  <path d="M512 110C552 132 588 164 614 208" stroke="#F3B71D" stroke-width="3" stroke-linecap="round" opacity="0.68"/>
</svg>
