<svg width="720" height="820" viewBox="0 0 720 820" fill="none" xmlns="http://www.w3.org/2000/svg">
  <defs>
    <linearGradient id="bg3" x1="50" y1="36" x2="606" y2="816" gradientUnits="userSpaceOnUse">
      <stop stop-color="#123544"/>
      <stop offset="1" stop-color="#08161C"/>
    </linearGradient>
    <linearGradient id="skin3" x1="360" y1="178" x2="360" y2="336" gradientUnits="userSpaceOnUse">
      <stop stop-color="#F4CEBA"/>
      <stop offset="1" stop-color="#D69B79"/>
    </linearGradient>
    <linearGradient id="hair3" x1="360" y1="118" x2="360" y2="354" gradientUnits="userSpaceOnUse">
      <stop stop-color="#3B2725"/>
      <stop offset="1" stop-color="#1A1517"/>
    </linearGradient>
    <linearGradient id="coat3" x1="240" y1="300" x2="496" y2="710" gradientUnits="userSpaceOnUse">
      <stop stop-color="#EEF0F5"/>
      <stop offset="1" stop-color="#D9DEE8"/>
    </linearGradient>
  </defs>
  <rect width="720" height="820" rx="48" fill="url(#bg3)"/>
  <circle cx="600" cy="112" r="90" fill="#F3B71D" opacity="0.14"/>
  <circle cx="120" cy="182" r="110" fill="#1AB2C2" opacity="0.12"/>
  <rect x="66" y="66" width="588" height="688" rx="36" fill="#0A1C24" opacity="0.34"/>
  <ellipse cx="362" cy="724" rx="176" ry="34" fill="#07161C" opacity="0.48"/>
  <rect x="286" y="522" width="80" height="160" rx="34" fill="#EDE0CF"/>
  <rect x="368" y="522" width="80" height="160" rx="34" fill="#E4D5C3"/>
  <path d="M242 396C242 336 290 288 350 288H390C450 288 498 336 498 396V572H242V396Z" fill="url(#coat3)"/>
  <path d="M290 326C318 304 352 294 388 300C420 304 450 324 472 356L490 480C474 542 430 582 364 582C300 582 258 542 240 478L290 326Z" fill="url(#coat3)"/>
  <path d="M316 316L364 362L414 314" stroke="#D1D7E4" stroke-width="8" stroke-linecap="round"/>
  <rect x="424" y="374" width="56" height="190" rx="24" transform="rotate(-17 424 374)" fill="#F8F9FC"/>
  <rect x="226" y="372" width="60" height="190" rx="24" transform="rotate(17 226 372)" fill="#F8F9FC"/>
  <rect x="308" y="164" width="108" height="142" rx="52" fill="url(#skin3)"/>
  <path d="M308 208C308 150 344 118 382 118C422 118 442 152 442 210V226H308V208Z" fill="url(#hair3)"/>
  <path d="M324 208C318 246 316 284 324 332" stroke="#2A1E1D" stroke-width="20" stroke-linecap="round"/>
  <path d="M420 208C436 248 444 286 440 338" stroke="#2A1E1D" stroke-width="20" stroke-linecap="round"/>
  <path d="M338 252C354 262 382 262 398 252" stroke="#B86D4E" stroke-width="5" stroke-linecap="round"/>
  <path d="M334 222C340 216 348 216 354 222" stroke="#3B2927" stroke-width="4" stroke-linecap="round"/>
  <path d="M392 222C398 216 406 216 412 222" stroke="#3B2927" stroke-width="4" stroke-linecap="round"/>
  <path d="M106 618C156 648 214 670 274 678" stroke="#1AB2C2" stroke-width="3" stroke-linecap="round" opacity="0.54"/>
  <path d="M510 120C554 140 590 174 616 220" stroke="#F3B71D" stroke-width="3" stroke-linecap="round" opacity="0.66"/>
</svg>
